<?xml version="1.0" encoding="UTF-8"?>
<svg xmlns="http://www.w3.org/2000/svg" xmlns:xlink="http://www.w3.org/1999/xlink" width="80px" height="40px" viewBox="0 0 80 40" version="1.1">
<defs>
<clipPath id="clip1">
  <path d="M 11.613281 19.039062 L 26.484375 19.039062 L 26.484375 26.476562 L 11.613281 26.476562 Z M 11.613281 19.039062 "/>
</clipPath>
</defs>
<g id="surface1">
<rect x="0" y="0" width="80" height="40" style="fill:rgb(100%,100%,100%);fill-opacity:1;stroke:none;"/>
<path style=" stroke:none;fill-rule:nonzero;fill:rgb(100%,77.647059%,19.607843%);fill-opacity:1;" d="M 30 24.515625 L 30 24.429688 L 30.859375 24.21875 L 30.859375 21.320312 L 30 21.109375 L 30 21.023438 L 32.964844 21.023438 C 33.796875 21.023438 34.464844 21.097656 34.96875 21.25 C 35.472656 21.402344 35.726562 21.640625 35.726562 21.96875 C 35.726562 22.164062 35.59375 22.335938 35.328125 22.484375 C 35.0625 22.636719 34.707031 22.753906 34.253906 22.839844 C 33.804688 22.925781 33.289062 22.96875 32.710938 22.96875 L 31.96875 22.96875 L 31.96875 24.21875 L 32.941406 24.429688 L 32.941406 24.515625 L 30 24.515625 M 31.96875 21.3125 L 31.96875 22.691406 L 32.773438 22.691406 C 33.332031 22.691406 33.769531 22.625 34.085938 22.5 C 34.402344 22.371094 34.5625 22.210938 34.5625 22.011719 C 34.5625 21.765625 34.402344 21.585938 34.082031 21.476562 C 33.757812 21.367188 33.300781 21.3125 32.699219 21.3125 L 31.96875 21.3125 M 36.910156 24.515625 L 36.910156 24.429688 L 37.777344 24.21875 L 37.777344 21.320312 L 36.910156 21.109375 L 36.910156 21.023438 L 39.734375 21.023438 L 39.734375 21.109375 L 38.878906 21.320312 L 38.878906 24.21875 L 39.734375 24.429688 L 39.734375 24.515625 L 36.910156 24.515625 M 41.046875 24.515625 L 41.046875 24.429688 L 41.90625 24.21875 L 41.90625 21.320312 L 41.046875 21.109375 L 41.046875 21.023438 L 43.871094 21.023438 L 43.871094 21.109375 L 43.015625 21.320312 L 43.015625 24.21875 L 43.871094 24.429688 L 43.871094 24.515625 L 41.046875 24.515625 M 43.015625 22.730469 L 45.9375 21.289062 L 45.183594 21.109375 L 45.183594 21.023438 L 47.46875 21.023438 L 47.46875 21.109375 L 46.804688 21.242188 L 44.09375 22.566406 L 47.355469 24.289062 L 48.019531 24.429688 L 48.019531 24.515625 L 46.296875 24.515625 L 43.015625 22.730469 M 52 24.566406 C 51.273438 24.566406 50.644531 24.492188 50.117188 24.347656 C 49.585938 24.199219 49.175781 23.996094 48.886719 23.738281 C 48.597656 23.480469 48.453125 23.1875 48.453125 22.859375 C 48.453125 22.605469 48.554688 22.367188 48.75 22.140625 C 48.949219 21.914062 49.21875 21.714844 49.558594 21.535156 C 49.902344 21.359375 50.296875 21.222656 50.738281 21.121094 C 51.183594 21.019531 51.65625 20.96875 52.15625 20.96875 C 52.519531 20.96875 52.820312 20.980469 53.066406 21.003906 C 53.316406 21.027344 53.535156 21.058594 53.730469 21.09375 C 53.921875 21.132812 54.117188 21.175781 54.316406 21.222656 L 54.378906 22.167969 L 54.191406 22.167969 L 53.460938 21.476562 C 53.21875 21.394531 53.003906 21.332031 52.808594 21.292969 C 52.613281 21.253906 52.398438 21.234375 52.15625 21.234375 C 51.671875 21.234375 51.234375 21.296875 50.847656 21.425781 C 50.457031 21.550781 50.152344 21.726562 49.929688 21.953125 C 49.707031 22.175781 49.597656 22.433594 49.597656 22.726562 C 49.597656 23.054688 49.703125 23.335938 49.921875 23.570312 C 50.136719 23.804688 50.425781 23.984375 50.792969 24.109375 C 51.160156 24.230469 51.566406 24.292969 52.011719 24.292969 C 52.375 24.292969 52.683594 24.269531 52.9375 24.21875 C 53.1875 24.167969 53.410156 24.109375 53.609375 24.042969 L 54.316406 23.453125 L 54.496094 23.453125 L 54.371094 24.304688 C 54.058594 24.382812 53.726562 24.445312 53.375 24.492188 C 53.023438 24.542969 52.5625 24.566406 52 24.566406 M 56.042969 24.515625 L 56.042969 24.429688 L 56.898438 24.21875 L 56.898438 21.320312 L 56.042969 21.109375 L 56.042969 21.023438 L 61.351562 21.023438 L 61.351562 21.933594 L 61.183594 21.933594 L 60.496094 21.3125 L 58.007812 21.3125 L 58.007812 22.566406 L 59.765625 22.566406 L 60.304688 22.125 L 60.476562 22.125 L 60.476562 23.292969 L 60.304688 23.292969 L 59.765625 22.859375 L 58.007812 22.859375 L 58.007812 24.222656 L 60.78125 24.222656 L 61.480469 23.527344 L 61.648438 23.527344 L 61.648438 24.515625 L 56.042969 24.515625 M 63.015625 24.515625 L 63.015625 24.429688 L 63.871094 24.21875 L 63.871094 21.320312 L 63.015625 21.109375 L 63.015625 21.023438 L 65.945312 21.023438 L 65.945312 21.109375 L 64.980469 21.320312 L 64.980469 24.222656 L 67.488281 24.222656 L 68.242188 23.3125 L 68.410156 23.3125 L 68.410156 24.515625 L 63.015625 24.515625 "/>
<g clip-path="url(#clip1)" clip-rule="nonzero">
<path style=" stroke:none;fill-rule:nonzero;fill:rgb(100%,77.647059%,19.607843%);fill-opacity:1;" d="M 11.902344 24.933594 L 13.15625 24.933594 L 13.15625 25.5625 C 13.15625 25.597656 13.1875 25.636719 13.242188 25.660156 C 13.292969 25.6875 13.367188 25.703125 13.441406 25.703125 L 14.699219 25.703125 L 14.699219 26.332031 C 14.699219 26.371094 14.730469 26.40625 14.785156 26.433594 C 14.835938 26.460938 14.910156 26.476562 14.984375 26.476562 L 26.199219 26.476562 C 26.273438 26.476562 26.347656 26.460938 26.402344 26.433594 C 26.457031 26.40625 26.484375 26.371094 26.484375 26.332031 L 26.484375 20.726562 C 26.484375 20.6875 26.457031 20.652344 26.402344 20.625 C 26.347656 20.597656 26.273438 20.582031 26.199219 20.582031 L 24.941406 20.582031 L 24.941406 19.953125 C 24.941406 19.914062 24.910156 19.878906 24.859375 19.851562 C 24.804688 19.824219 24.730469 19.8125 24.65625 19.8125 L 23.398438 19.8125 L 23.398438 19.183594 C 23.398438 19.144531 23.371094 19.109375 23.316406 19.082031 C 23.261719 19.054688 23.1875 19.039062 23.113281 19.039062 L 11.902344 19.039062 C 11.824219 19.039062 11.753906 19.054688 11.699219 19.082031 C 11.644531 19.109375 11.613281 19.144531 11.613281 19.183594 L 11.613281 24.789062 C 11.613281 24.828125 11.644531 24.863281 11.699219 24.890625 C 11.753906 24.917969 11.824219 24.933594 11.902344 24.933594 Z M 24.941406 25.5625 L 24.941406 20.867188 L 25.914062 20.867188 L 25.914062 26.1875 L 15.269531 26.1875 L 15.269531 25.703125 L 24.65625 25.703125 C 24.8125 25.703125 24.941406 25.640625 24.941406 25.5625 Z M 23.402344 24.789062 L 23.402344 20.097656 L 24.371094 20.097656 L 24.371094 25.417969 L 13.726562 25.417969 L 13.726562 24.933594 L 23.113281 24.933594 C 23.1875 24.933594 23.261719 24.917969 23.316406 24.890625 C 23.371094 24.863281 23.398438 24.828125 23.398438 24.789062 Z M 12.1875 19.324219 L 22.828125 19.324219 L 22.828125 24.644531 L 12.1875 24.644531 Z M 12.1875 19.324219 "/>
</g>
</g>
</svg>
