<?xml version="1.0" standalone="no"?>
<!DOCTYPE svg PUBLIC "-//W3C//DTD SVG 20010904//EN"
 "http://www.w3.org/TR/2001/REC-SVG-20010904/DTD/svg10.dtd">
<svg version="1.0" xmlns="http://www.w3.org/2000/svg"
 width="1280.000000pt" height="1277.000000pt" viewBox="0 0 1280.000000 1277.000000"
 preserveAspectRatio="xMidYMid meet">
<g transform="translate(0.000000,1277.000000) scale(0.100000,-0.100000)"
fill="#000000" stroke="none">
<path d="M1518 12694 c-3 -5 -16 -58 -28 -119 -135 -677 -505 -1928 -999
-3375 -159 -468 -227 -661 -410 -1178 l-51 -143 143 133 c373 349 734 581
1166 753 128 50 146 55 156 41 7 -8 17 -65 24 -126 6 -60 23 -176 37 -257 245
-1449 1019 -3236 2012 -4643 922 -1306 1987 -2292 3180 -2945 804 -439 1765
-732 2642 -805 74 -6 158 -15 187 -19 l52 -8 -188 186 c-234 232 -322 341
-401 499 -175 350 -18 608 468 771 476 159 1341 240 2576 241 154 0 277 2 275
4 -2 2 -83 11 -179 20 -873 85 -1775 251 -2620 483 -2855 784 -5090 2276
-6287 4198 -430 689 -727 1422 -888 2190 -55 265 -57 279 -29 283 64 9 594
-129 869 -226 243 -86 572 -224 758 -318 27 -14 51 -24 53 -22 2 3 -49 76
-114 164 -1269 1716 -2150 3246 -2370 4115 -16 62 -31 108 -34 103z"/>
</g>
</svg>
