<?xml version="1.0" encoding="UTF-8"?>
<svg xmlns="http://www.w3.org/2000/svg" xmlns:xlink="http://www.w3.org/1999/xlink" width="50px" height="50px" viewBox="0 0 50 50" version="1.1">
<defs>
<clipPath id="clip1">
  <path d="M 7.257812 23.800781 L 16.554688 23.800781 L 16.554688 33.09375 L 7.257812 33.09375 Z M 7.257812 23.800781 "/>
</clipPath>
</defs>
<g id="surface1">
<path style=" stroke:none;fill-rule:nonzero;fill:rgb(100%,77.647059%,19.607843%);fill-opacity:1;" d="M 18.75 30.644531 L 18.75 30.539062 L 19.285156 30.273438 L 19.285156 26.648438 L 18.75 26.386719 L 18.75 26.277344 L 20.601562 26.277344 C 21.121094 26.277344 21.539062 26.375 21.855469 26.5625 C 22.171875 26.753906 22.328125 27.054688 22.328125 27.464844 C 22.328125 27.707031 22.246094 27.921875 22.082031 28.109375 C 21.914062 28.296875 21.691406 28.441406 21.410156 28.550781 C 21.128906 28.660156 20.804688 28.710938 20.445312 28.710938 L 19.980469 28.710938 L 19.980469 30.273438 L 20.589844 30.539062 L 20.589844 30.644531 L 18.75 30.644531 M 19.980469 26.644531 L 19.980469 28.363281 L 20.484375 28.363281 C 20.832031 28.363281 21.105469 28.28125 21.304688 28.125 C 21.5 27.964844 21.601562 27.761719 21.601562 27.515625 C 21.601562 27.207031 21.5 26.984375 21.300781 26.847656 C 21.097656 26.710938 20.8125 26.644531 20.4375 26.644531 L 19.980469 26.644531 M 23.070312 30.644531 L 23.070312 30.539062 L 23.609375 30.273438 L 23.609375 26.648438 L 23.070312 26.386719 L 23.070312 26.277344 L 24.835938 26.277344 L 24.835938 26.386719 L 24.300781 26.648438 L 24.300781 30.273438 L 24.835938 30.539062 L 24.835938 30.644531 L 23.070312 30.644531 M 25.65625 30.644531 L 25.65625 30.539062 L 26.191406 30.273438 L 26.191406 26.648438 L 25.65625 26.386719 L 25.65625 26.277344 L 27.421875 26.277344 L 27.421875 26.386719 L 26.886719 26.648438 L 26.886719 30.273438 L 27.421875 30.539062 L 27.421875 30.644531 L 25.65625 30.644531 M 26.886719 28.414062 L 28.710938 26.609375 L 28.242188 26.386719 L 28.242188 26.277344 L 29.667969 26.277344 L 29.667969 26.386719 L 29.253906 26.550781 L 27.558594 28.210938 L 29.597656 30.359375 L 30.011719 30.539062 L 30.011719 30.644531 L 28.933594 30.644531 L 26.886719 28.414062 M 32.5 30.710938 C 32.046875 30.710938 31.652344 30.617188 31.324219 30.433594 C 30.992188 30.246094 30.734375 29.992188 30.554688 29.671875 C 30.375 29.351562 30.285156 28.984375 30.285156 28.574219 C 30.285156 28.257812 30.347656 27.957031 30.46875 27.675781 C 30.59375 27.390625 30.761719 27.140625 30.976562 26.921875 C 31.1875 26.699219 31.433594 26.527344 31.710938 26.402344 C 31.992188 26.277344 32.285156 26.214844 32.597656 26.214844 C 32.824219 26.214844 33.011719 26.226562 33.167969 26.257812 C 33.320312 26.285156 33.460938 26.320312 33.582031 26.367188 C 33.703125 26.414062 33.824219 26.46875 33.949219 26.53125 L 33.988281 27.707031 L 33.867188 27.707031 L 33.414062 26.847656 C 33.261719 26.742188 33.125 26.664062 33.003906 26.617188 C 32.882812 26.566406 32.75 26.542969 32.597656 26.542969 C 32.292969 26.542969 32.019531 26.625 31.777344 26.78125 C 31.535156 26.941406 31.34375 27.160156 31.207031 27.441406 C 31.066406 27.71875 31 28.042969 31 28.410156 C 31 28.820312 31.066406 29.171875 31.199219 29.464844 C 31.335938 29.757812 31.515625 29.980469 31.746094 30.132812 C 31.976562 30.289062 32.226562 30.367188 32.507812 30.367188 C 32.734375 30.367188 32.929688 30.335938 33.085938 30.273438 C 33.242188 30.210938 33.382812 30.140625 33.503906 30.054688 L 33.949219 29.316406 L 34.058594 29.316406 L 33.980469 30.378906 C 33.785156 30.476562 33.578125 30.554688 33.359375 30.617188 C 33.140625 30.679688 32.851562 30.710938 32.5 30.710938 M 35.027344 30.644531 L 35.027344 30.539062 L 35.5625 30.273438 L 35.5625 26.648438 L 35.027344 26.386719 L 35.027344 26.277344 L 38.34375 26.277344 L 38.34375 27.417969 L 38.238281 27.417969 L 37.808594 26.644531 L 36.253906 26.644531 L 36.253906 28.210938 L 37.355469 28.210938 L 37.691406 27.65625 L 37.796875 27.65625 L 37.796875 29.117188 L 37.691406 29.117188 L 37.355469 28.574219 L 36.253906 28.574219 L 36.253906 30.28125 L 37.988281 30.28125 L 38.425781 29.40625 L 38.53125 29.40625 L 38.53125 30.644531 L 35.027344 30.644531 M 39.382812 30.644531 L 39.382812 30.539062 L 39.917969 30.273438 L 39.917969 26.648438 L 39.382812 26.386719 L 39.382812 26.277344 L 41.214844 26.277344 L 41.214844 26.386719 L 40.613281 26.648438 L 40.613281 30.28125 L 42.179688 30.28125 L 42.652344 29.144531 L 42.757812 29.144531 L 42.757812 30.644531 L 39.382812 30.644531 "/>
<g clip-path="url(#clip1)" clip-rule="nonzero">
<path style=" stroke:none;fill-rule:nonzero;fill:rgb(100%,77.647059%,19.607843%);fill-opacity:1;" d="M 7.4375 31.164062 L 8.222656 31.164062 L 8.222656 31.949219 C 8.222656 32 8.242188 32.042969 8.277344 32.078125 C 8.308594 32.109375 8.355469 32.128906 8.402344 32.128906 L 9.1875 32.128906 L 9.1875 32.914062 C 9.1875 32.960938 9.207031 33.007812 9.238281 33.042969 C 9.273438 33.074219 9.320312 33.09375 9.367188 33.09375 L 16.375 33.09375 C 16.421875 33.09375 16.46875 33.074219 16.5 33.042969 C 16.535156 33.007812 16.554688 32.960938 16.554688 32.914062 L 16.554688 25.90625 C 16.554688 25.859375 16.535156 25.8125 16.5 25.78125 C 16.46875 25.746094 16.421875 25.726562 16.375 25.726562 L 15.589844 25.726562 L 15.589844 24.941406 C 15.589844 24.894531 15.570312 24.847656 15.535156 24.816406 C 15.503906 24.78125 15.457031 24.761719 15.410156 24.761719 L 14.625 24.761719 L 14.625 23.976562 C 14.625 23.929688 14.605469 23.886719 14.574219 23.851562 C 14.539062 23.820312 14.492188 23.800781 14.445312 23.800781 L 7.4375 23.800781 C 7.390625 23.800781 7.34375 23.820312 7.3125 23.851562 C 7.277344 23.886719 7.257812 23.929688 7.257812 23.976562 L 7.257812 30.988281 C 7.257812 31.035156 7.277344 31.078125 7.3125 31.113281 C 7.34375 31.148438 7.390625 31.164062 7.4375 31.164062 Z M 15.589844 31.949219 L 15.589844 26.085938 L 16.195312 26.085938 L 16.195312 32.734375 L 9.542969 32.734375 L 9.542969 32.128906 L 15.410156 32.128906 C 15.507812 32.128906 15.589844 32.050781 15.589844 31.949219 Z M 14.625 30.988281 L 14.625 25.121094 L 15.230469 25.121094 L 15.230469 31.773438 L 8.582031 31.773438 L 8.582031 31.164062 L 14.445312 31.164062 C 14.492188 31.164062 14.539062 31.148438 14.574219 31.113281 C 14.605469 31.078125 14.625 31.035156 14.625 30.988281 Z M 7.617188 24.15625 L 14.265625 24.15625 L 14.265625 30.808594 L 7.617188 30.808594 Z M 7.617188 24.15625 "/>
</g>
</g>
</svg>
